<mxfile host="app.diagrams.net" modified="2023-01-18T11:28:50.314Z" agent="5.0 (Macintosh; Intel Mac OS X 10_15_7) AppleWebKit/537.36 (KHTML, like Gecko) Chrome/109.0.0.0 Safari/537.36" etag="4sXF22FKygj4c1AujQkO" version="20.8.5" type="github">
  <diagram id="DTv9dg1DmqakoD7wRn0J" name="第 1 页">
    <mxGraphModel dx="1853" dy="661" grid="1" gridSize="10" guides="1" tooltips="1" connect="1" arrows="1" fold="1" page="1" pageScale="1" pageWidth="827" pageHeight="1169" math="0" shadow="0">
      <root>
        <mxCell id="0" />
        <mxCell id="1" parent="0" />
        <mxCell id="MdRKIYvDslZlhQshD0X1-1" value="外部数据统一管理平台" style="rounded=1;whiteSpace=wrap;html=1;" parent="1" vertex="1">
          <mxGeometry x="140" y="110" width="120" height="60" as="geometry" />
        </mxCell>
        <mxCell id="MdRKIYvDslZlhQshD0X1-2" value="" style="endArrow=none;dashed=1;html=1;rounded=0;" parent="1" edge="1">
          <mxGeometry width="50" height="50" relative="1" as="geometry">
            <mxPoint x="200" y="400" as="sourcePoint" />
            <mxPoint x="200" y="170" as="targetPoint" />
          </mxGeometry>
        </mxCell>
        <mxCell id="MdRKIYvDslZlhQshD0X1-3" value="OCR识别系统" style="rounded=1;whiteSpace=wrap;html=1;" parent="1" vertex="1">
          <mxGeometry x="354" y="110" width="120" height="60" as="geometry" />
        </mxCell>
        <mxCell id="MdRKIYvDslZlhQshD0X1-4" value="" style="endArrow=none;dashed=1;html=1;rounded=0;" parent="1" edge="1">
          <mxGeometry width="50" height="50" relative="1" as="geometry">
            <mxPoint x="410" y="400" as="sourcePoint" />
            <mxPoint x="414" y="170" as="targetPoint" />
          </mxGeometry>
        </mxCell>
        <mxCell id="MdRKIYvDslZlhQshD0X1-9" value="合规规则库和合规图谱系统" style="rounded=1;whiteSpace=wrap;html=1;" parent="1" vertex="1">
          <mxGeometry x="595" y="110" width="120" height="60" as="geometry" />
        </mxCell>
        <mxCell id="MdRKIYvDslZlhQshD0X1-10" value="" style="endArrow=none;dashed=1;html=1;rounded=0;" parent="1" edge="1">
          <mxGeometry width="50" height="50" relative="1" as="geometry">
            <mxPoint x="655" y="400" as="sourcePoint" />
            <mxPoint x="655" y="170" as="targetPoint" />
          </mxGeometry>
        </mxCell>
        <mxCell id="MdRKIYvDslZlhQshD0X1-17" value="2-2.返回文本内容" style="text;html=1;align=center;verticalAlign=middle;resizable=0;points=[];autosize=1;strokeColor=none;fillColor=none;" parent="1" vertex="1">
          <mxGeometry x="475" y="245" width="120" height="30" as="geometry" />
        </mxCell>
        <mxCell id="MdRKIYvDslZlhQshD0X1-40" value="合规管理平台" style="rounded=1;whiteSpace=wrap;html=1;" parent="1" vertex="1">
          <mxGeometry x="-60" y="110" width="120" height="60" as="geometry" />
        </mxCell>
        <mxCell id="MdRKIYvDslZlhQshD0X1-41" value="" style="endArrow=none;dashed=1;html=1;rounded=0;" parent="1" edge="1">
          <mxGeometry width="50" height="50" relative="1" as="geometry">
            <mxPoint y="400" as="sourcePoint" />
            <mxPoint y="170" as="targetPoint" />
          </mxGeometry>
        </mxCell>
        <mxCell id="MdRKIYvDslZlhQshD0X1-44" value="" style="endArrow=classic;html=1;rounded=0;" parent="1" edge="1">
          <mxGeometry width="50" height="50" relative="1" as="geometry">
            <mxPoint x="660" y="320" as="sourcePoint" />
            <mxPoint y="320" as="targetPoint" />
          </mxGeometry>
        </mxCell>
        <mxCell id="MdRKIYvDslZlhQshD0X1-45" value="1(3).通过定时任务去拉取Office内规" style="edgeLabel;html=1;align=center;verticalAlign=middle;resizable=0;points=[];" parent="MdRKIYvDslZlhQshD0X1-44" vertex="1" connectable="0">
          <mxGeometry x="0.1721" y="-1" relative="1" as="geometry">
            <mxPoint as="offset" />
          </mxGeometry>
        </mxCell>
        <mxCell id="MdRKIYvDslZlhQshD0X1-46" value="" style="endArrow=classic;html=1;rounded=0;exitX=0.885;exitY=0.833;exitDx=0;exitDy=0;exitPerimeter=0;" parent="1" edge="1" source="MdRKIYvDslZlhQshD0X1-47">
          <mxGeometry width="50" height="50" relative="1" as="geometry">
            <mxPoint x="860" y="240" as="sourcePoint" />
            <mxPoint x="410" y="240" as="targetPoint" />
          </mxGeometry>
        </mxCell>
        <mxCell id="MdRKIYvDslZlhQshD0X1-47" value="2-1.调用ocr识别接口" style="text;html=1;align=center;verticalAlign=middle;resizable=0;points=[];autosize=1;strokeColor=none;fillColor=none;" parent="1" vertex="1">
          <mxGeometry x="477" y="215" width="130" height="30" as="geometry" />
        </mxCell>
        <mxCell id="MdRKIYvDslZlhQshD0X1-48" value="" style="endArrow=classic;html=1;rounded=0;dashed=1;" parent="1" edge="1">
          <mxGeometry width="50" height="50" relative="1" as="geometry">
            <mxPoint x="420" y="268" as="sourcePoint" />
            <mxPoint x="660" y="268" as="targetPoint" />
          </mxGeometry>
        </mxCell>
        <mxCell id="uCBHDU_tUCwHQfPwThgq-1" value="" style="endArrow=classic;html=1;rounded=0;" edge="1" parent="1">
          <mxGeometry width="50" height="50" relative="1" as="geometry">
            <mxPoint x="660" y="200" as="sourcePoint" />
            <mxPoint x="200" y="200" as="targetPoint" />
          </mxGeometry>
        </mxCell>
        <mxCell id="uCBHDU_tUCwHQfPwThgq-2" value="" style="endArrow=classic;html=1;rounded=0;" edge="1" parent="1">
          <mxGeometry width="50" height="50" relative="1" as="geometry">
            <mxPoint x="660" y="290" as="sourcePoint" />
            <mxPoint x="200" y="290" as="targetPoint" />
          </mxGeometry>
        </mxCell>
        <mxCell id="uCBHDU_tUCwHQfPwThgq-4" value="1(2).通过定时任务去拉取Office格式外规" style="edgeLabel;html=1;align=center;verticalAlign=middle;resizable=0;points=[];" vertex="1" connectable="0" parent="uCBHDU_tUCwHQfPwThgq-2">
          <mxGeometry x="0.1867" y="-4" relative="1" as="geometry">
            <mxPoint as="offset" />
          </mxGeometry>
        </mxCell>
        <mxCell id="uCBHDU_tUCwHQfPwThgq-3" value="1(1).通过定时任务去拉取图片格式法规" style="text;html=1;align=center;verticalAlign=middle;resizable=0;points=[];autosize=1;strokeColor=none;fillColor=none;" vertex="1" parent="1">
          <mxGeometry x="355" y="175" width="230" height="30" as="geometry" />
        </mxCell>
        <mxCell id="uCBHDU_tUCwHQfPwThgq-5" value="人工智能服务平台(Carina平台)" style="rounded=1;whiteSpace=wrap;html=1;" vertex="1" parent="1">
          <mxGeometry x="-40" y="690" width="120" height="60" as="geometry" />
        </mxCell>
        <mxCell id="uCBHDU_tUCwHQfPwThgq-6" value="" style="endArrow=none;dashed=1;html=1;rounded=0;" edge="1" parent="1">
          <mxGeometry width="50" height="50" relative="1" as="geometry">
            <mxPoint x="20" y="1040" as="sourcePoint" />
            <mxPoint x="20" y="750" as="targetPoint" />
          </mxGeometry>
        </mxCell>
        <mxCell id="uCBHDU_tUCwHQfPwThgq-7" value="合规规则库和合规图谱系统" style="rounded=1;whiteSpace=wrap;html=1;" vertex="1" parent="1">
          <mxGeometry x="190" y="690" width="120" height="60" as="geometry" />
        </mxCell>
        <mxCell id="uCBHDU_tUCwHQfPwThgq-8" value="" style="endArrow=none;dashed=1;html=1;rounded=0;" edge="1" parent="1">
          <mxGeometry width="50" height="50" relative="1" as="geometry">
            <mxPoint x="250" y="1040" as="sourcePoint" />
            <mxPoint x="250" y="750" as="targetPoint" />
          </mxGeometry>
        </mxCell>
        <mxCell id="uCBHDU_tUCwHQfPwThgq-9" value="华夏银行综合信息管理系统" style="rounded=1;whiteSpace=wrap;html=1;" vertex="1" parent="1">
          <mxGeometry x="650" y="760" width="120" height="60" as="geometry" />
        </mxCell>
        <mxCell id="uCBHDU_tUCwHQfPwThgq-10" value="" style="endArrow=none;dashed=1;html=1;rounded=0;" edge="1" parent="1">
          <mxGeometry width="50" height="50" relative="1" as="geometry">
            <mxPoint x="710" y="960" as="sourcePoint" />
            <mxPoint x="710" y="820" as="targetPoint" />
          </mxGeometry>
        </mxCell>
        <mxCell id="uCBHDU_tUCwHQfPwThgq-11" value="合规规则库和合规图谱系统" style="rounded=1;whiteSpace=wrap;html=1;" vertex="1" parent="1">
          <mxGeometry x="420" y="760" width="120" height="60" as="geometry" />
        </mxCell>
        <mxCell id="uCBHDU_tUCwHQfPwThgq-12" value="" style="endArrow=none;dashed=1;html=1;rounded=0;" edge="1" parent="1">
          <mxGeometry width="50" height="50" relative="1" as="geometry">
            <mxPoint x="480" y="960" as="sourcePoint" />
            <mxPoint x="480" y="820" as="targetPoint" />
          </mxGeometry>
        </mxCell>
        <mxCell id="uCBHDU_tUCwHQfPwThgq-15" value="" style="endArrow=classic;html=1;rounded=0;" edge="1" parent="1">
          <mxGeometry width="50" height="50" relative="1" as="geometry">
            <mxPoint x="477" y="875" as="sourcePoint" />
            <mxPoint x="707" y="875" as="targetPoint" />
          </mxGeometry>
        </mxCell>
        <mxCell id="uCBHDU_tUCwHQfPwThgq-16" value="请求用户信息" style="text;html=1;align=center;verticalAlign=middle;resizable=0;points=[];autosize=1;strokeColor=none;fillColor=none;" vertex="1" parent="1">
          <mxGeometry x="527" y="850" width="100" height="30" as="geometry" />
        </mxCell>
        <mxCell id="uCBHDU_tUCwHQfPwThgq-17" value="" style="endArrow=classic;html=1;rounded=0;dashed=1;" edge="1" parent="1">
          <mxGeometry width="50" height="50" relative="1" as="geometry">
            <mxPoint x="707" y="915" as="sourcePoint" />
            <mxPoint x="477" y="915" as="targetPoint" />
          </mxGeometry>
        </mxCell>
        <mxCell id="uCBHDU_tUCwHQfPwThgq-18" value="返回用户信息" style="text;html=1;align=center;verticalAlign=middle;resizable=0;points=[];autosize=1;strokeColor=none;fillColor=none;" vertex="1" parent="1">
          <mxGeometry x="537" y="890" width="100" height="30" as="geometry" />
        </mxCell>
        <mxCell id="uCBHDU_tUCwHQfPwThgq-21" value="" style="endArrow=classic;html=1;rounded=0;" edge="1" parent="1">
          <mxGeometry width="50" height="50" relative="1" as="geometry">
            <mxPoint x="250" y="840" as="sourcePoint" />
            <mxPoint x="20" y="840" as="targetPoint" />
          </mxGeometry>
        </mxCell>
        <mxCell id="uCBHDU_tUCwHQfPwThgq-22" value="" style="endArrow=classic;html=1;rounded=0;dashed=1;" edge="1" parent="1">
          <mxGeometry width="50" height="50" relative="1" as="geometry">
            <mxPoint x="20" y="880" as="sourcePoint" />
            <mxPoint x="250" y="880" as="targetPoint" />
          </mxGeometry>
        </mxCell>
        <mxCell id="uCBHDU_tUCwHQfPwThgq-23" value="" style="endArrow=classic;html=1;rounded=0;" edge="1" parent="1">
          <mxGeometry width="50" height="50" relative="1" as="geometry">
            <mxPoint x="250" y="920" as="sourcePoint" />
            <mxPoint x="20" y="920" as="targetPoint" />
          </mxGeometry>
        </mxCell>
        <mxCell id="uCBHDU_tUCwHQfPwThgq-24" value="" style="endArrow=classic;html=1;rounded=0;dashed=1;" edge="1" parent="1">
          <mxGeometry width="50" height="50" relative="1" as="geometry">
            <mxPoint x="20" y="960" as="sourcePoint" />
            <mxPoint x="250" y="960" as="targetPoint" />
          </mxGeometry>
        </mxCell>
        <mxCell id="uCBHDU_tUCwHQfPwThgq-25" value="调用文本纠错引擎" style="text;html=1;align=center;verticalAlign=middle;resizable=0;points=[];autosize=1;strokeColor=none;fillColor=none;" vertex="1" parent="1">
          <mxGeometry x="60" y="815" width="120" height="30" as="geometry" />
        </mxCell>
        <mxCell id="uCBHDU_tUCwHQfPwThgq-26" value="返回错误和纠正文本集" style="text;html=1;align=center;verticalAlign=middle;resizable=0;points=[];autosize=1;strokeColor=none;fillColor=none;" vertex="1" parent="1">
          <mxGeometry x="40" y="855" width="140" height="30" as="geometry" />
        </mxCell>
        <mxCell id="uCBHDU_tUCwHQfPwThgq-27" value="调用实体识别引擎" style="text;html=1;align=center;verticalAlign=middle;resizable=0;points=[];autosize=1;strokeColor=none;fillColor=none;" vertex="1" parent="1">
          <mxGeometry x="50" y="895" width="120" height="30" as="geometry" />
        </mxCell>
        <mxCell id="uCBHDU_tUCwHQfPwThgq-28" value="返回实体集" style="text;html=1;align=center;verticalAlign=middle;resizable=0;points=[];autosize=1;strokeColor=none;fillColor=none;" vertex="1" parent="1">
          <mxGeometry x="60" y="935" width="80" height="30" as="geometry" />
        </mxCell>
      </root>
    </mxGraphModel>
  </diagram>
</mxfile>
